<mxfile host="app.diagrams.net" modified="2024-01-25T11:28:24.550Z" agent="Mozilla/5.0 (Windows NT 10.0; Win64; x64) AppleWebKit/537.36 (KHTML, like Gecko) Chrome/121.0.0.0 Safari/537.36" etag="slF7tjNcED5Fd-KOu-HG" version="23.0.1" type="device">
  <diagram name="Página-1" id="hERKpnM_2fjuKgO62qwC">
    <mxGraphModel dx="1405" dy="854" grid="1" gridSize="10" guides="1" tooltips="1" connect="1" arrows="1" fold="1" page="1" pageScale="1" pageWidth="827" pageHeight="1169" math="0" shadow="0">
      <root>
        <mxCell id="0" />
        <mxCell id="1" parent="0" />
        <mxCell id="BNECgeIn87ItxJDiMcSJ-8" style="edgeStyle=orthogonalEdgeStyle;rounded=0;orthogonalLoop=1;jettySize=auto;html=1;exitX=0.5;exitY=1;exitDx=0;exitDy=0;entryX=0.5;entryY=0;entryDx=0;entryDy=0;" parent="1" source="BNECgeIn87ItxJDiMcSJ-1" target="BNECgeIn87ItxJDiMcSJ-2" edge="1">
          <mxGeometry relative="1" as="geometry" />
        </mxCell>
        <mxCell id="BNECgeIn87ItxJDiMcSJ-1" value="inicio" style="ellipse;whiteSpace=wrap;html=1;" parent="1" vertex="1">
          <mxGeometry x="380" y="180" width="90" height="50" as="geometry" />
        </mxCell>
        <mxCell id="Y6UNsyVRxI7d8nhPNUa1-57" style="edgeStyle=orthogonalEdgeStyle;rounded=0;orthogonalLoop=1;jettySize=auto;html=1;exitX=0.5;exitY=1;exitDx=0;exitDy=0;entryX=0.5;entryY=0;entryDx=0;entryDy=0;" edge="1" parent="1" source="BNECgeIn87ItxJDiMcSJ-2" target="Y6UNsyVRxI7d8nhPNUa1-56">
          <mxGeometry relative="1" as="geometry" />
        </mxCell>
        <mxCell id="BNECgeIn87ItxJDiMcSJ-2" value="Int: n1, n2&lt;br&gt;String: opcion" style="rounded=0;whiteSpace=wrap;html=1;" parent="1" vertex="1">
          <mxGeometry x="365" y="260" width="120" height="60" as="geometry" />
        </mxCell>
        <mxCell id="Y6UNsyVRxI7d8nhPNUa1-31" style="edgeStyle=orthogonalEdgeStyle;rounded=0;orthogonalLoop=1;jettySize=auto;html=1;exitX=0.5;exitY=1;exitDx=0;exitDy=0;entryX=0.5;entryY=0;entryDx=0;entryDy=0;" edge="1" parent="1" source="Y6UNsyVRxI7d8nhPNUa1-1" target="Y6UNsyVRxI7d8nhPNUa1-11">
          <mxGeometry relative="1" as="geometry" />
        </mxCell>
        <mxCell id="Y6UNsyVRxI7d8nhPNUa1-1" value="Inicio calculos" style="ellipse;whiteSpace=wrap;html=1;" vertex="1" parent="1">
          <mxGeometry x="920" y="220" width="90" height="50" as="geometry" />
        </mxCell>
        <mxCell id="Y6UNsyVRxI7d8nhPNUa1-2" style="edgeStyle=orthogonalEdgeStyle;rounded=0;orthogonalLoop=1;jettySize=auto;html=1;exitX=1;exitY=0.5;exitDx=0;exitDy=0;entryX=0;entryY=0.5;entryDx=0;entryDy=0;" edge="1" parent="1" source="Y6UNsyVRxI7d8nhPNUa1-8" target="Y6UNsyVRxI7d8nhPNUa1-13">
          <mxGeometry relative="1" as="geometry" />
        </mxCell>
        <mxCell id="Y6UNsyVRxI7d8nhPNUa1-5" style="edgeStyle=orthogonalEdgeStyle;rounded=0;orthogonalLoop=1;jettySize=auto;html=1;exitX=0.625;exitY=1;exitDx=0;exitDy=0;entryX=0.5;entryY=0;entryDx=0;entryDy=0;" edge="1" parent="1" source="Y6UNsyVRxI7d8nhPNUa1-8" target="Y6UNsyVRxI7d8nhPNUa1-38">
          <mxGeometry relative="1" as="geometry">
            <Array as="points">
              <mxPoint x="978" y="480" />
              <mxPoint x="1070" y="480" />
            </Array>
            <mxPoint x="1072.5" y="505" as="targetPoint" />
          </mxGeometry>
        </mxCell>
        <mxCell id="Y6UNsyVRxI7d8nhPNUa1-6" style="edgeStyle=orthogonalEdgeStyle;rounded=0;orthogonalLoop=1;jettySize=auto;html=1;exitX=0.5;exitY=1;exitDx=0;exitDy=0;entryX=0.5;entryY=0;entryDx=0;entryDy=0;entryPerimeter=0;" edge="1" parent="1" source="Y6UNsyVRxI7d8nhPNUa1-8" target="Y6UNsyVRxI7d8nhPNUa1-49">
          <mxGeometry relative="1" as="geometry">
            <mxPoint x="985" y="515" as="targetPoint" />
          </mxGeometry>
        </mxCell>
        <mxCell id="Y6UNsyVRxI7d8nhPNUa1-7" style="edgeStyle=orthogonalEdgeStyle;rounded=0;orthogonalLoop=1;jettySize=auto;html=1;exitX=0.375;exitY=1;exitDx=0;exitDy=0;entryX=0.5;entryY=0;entryDx=0;entryDy=0;" edge="1" parent="1" source="Y6UNsyVRxI7d8nhPNUa1-8" target="Y6UNsyVRxI7d8nhPNUa1-50">
          <mxGeometry relative="1" as="geometry">
            <mxPoint x="875" y="505" as="targetPoint" />
          </mxGeometry>
        </mxCell>
        <mxCell id="Y6UNsyVRxI7d8nhPNUa1-52" style="edgeStyle=orthogonalEdgeStyle;rounded=0;orthogonalLoop=1;jettySize=auto;html=1;exitX=1;exitY=0.75;exitDx=0;exitDy=0;entryX=0.5;entryY=0;entryDx=0;entryDy=0;" edge="1" parent="1" source="Y6UNsyVRxI7d8nhPNUa1-8" target="Y6UNsyVRxI7d8nhPNUa1-51">
          <mxGeometry relative="1" as="geometry" />
        </mxCell>
        <mxCell id="Y6UNsyVRxI7d8nhPNUa1-8" value="" style="verticalLabelPosition=bottom;verticalAlign=top;html=1;shape=hexagon;perimeter=hexagonPerimeter2;arcSize=6;size=0.27;" vertex="1" parent="1">
          <mxGeometry x="915" y="405" width="100" height="60" as="geometry" />
        </mxCell>
        <mxCell id="Y6UNsyVRxI7d8nhPNUa1-9" value="opcion" style="text;html=1;strokeColor=none;fillColor=none;align=center;verticalAlign=middle;whiteSpace=wrap;rounded=0;" vertex="1" parent="1">
          <mxGeometry x="935" y="420" width="60" height="30" as="geometry" />
        </mxCell>
        <mxCell id="Y6UNsyVRxI7d8nhPNUa1-10" style="edgeStyle=orthogonalEdgeStyle;rounded=0;orthogonalLoop=1;jettySize=auto;html=1;exitX=0.5;exitY=1;exitDx=0;exitDy=0;entryX=0.5;entryY=0;entryDx=0;entryDy=0;" edge="1" parent="1" source="Y6UNsyVRxI7d8nhPNUa1-11" target="Y6UNsyVRxI7d8nhPNUa1-8">
          <mxGeometry relative="1" as="geometry" />
        </mxCell>
        <mxCell id="Y6UNsyVRxI7d8nhPNUa1-11" value="leer n1, n2, opcion" style="shape=parallelogram;perimeter=parallelogramPerimeter;whiteSpace=wrap;html=1;fixedSize=1;" vertex="1" parent="1">
          <mxGeometry x="900" y="335" width="130" height="50" as="geometry" />
        </mxCell>
        <mxCell id="Y6UNsyVRxI7d8nhPNUa1-77" style="edgeStyle=orthogonalEdgeStyle;rounded=0;orthogonalLoop=1;jettySize=auto;html=1;exitX=1;exitY=0.5;exitDx=0;exitDy=0;entryX=0;entryY=0.5;entryDx=0;entryDy=0;" edge="1" parent="1" source="Y6UNsyVRxI7d8nhPNUa1-13" target="Y6UNsyVRxI7d8nhPNUa1-76">
          <mxGeometry relative="1" as="geometry" />
        </mxCell>
        <mxCell id="Y6UNsyVRxI7d8nhPNUa1-13" value="opción no valida" style="shape=document;whiteSpace=wrap;html=1;boundedLbl=1;" vertex="1" parent="1">
          <mxGeometry x="1070" y="395" width="90" height="40" as="geometry" />
        </mxCell>
        <mxCell id="Y6UNsyVRxI7d8nhPNUa1-14" value="*" style="text;html=1;strokeColor=none;fillColor=none;align=center;verticalAlign=middle;whiteSpace=wrap;rounded=0;" vertex="1" parent="1">
          <mxGeometry x="1030" y="395" width="30" height="20" as="geometry" />
        </mxCell>
        <mxCell id="Y6UNsyVRxI7d8nhPNUa1-26" value="multiplicar" style="text;html=1;strokeColor=none;fillColor=none;align=center;verticalAlign=middle;whiteSpace=wrap;rounded=0;" vertex="1" parent="1">
          <mxGeometry x="990" y="460" width="60" height="30" as="geometry" />
        </mxCell>
        <mxCell id="Y6UNsyVRxI7d8nhPNUa1-27" value="sumar" style="text;html=1;strokeColor=none;fillColor=none;align=center;verticalAlign=middle;whiteSpace=wrap;rounded=0;" vertex="1" parent="1">
          <mxGeometry x="875" y="460" width="60" height="30" as="geometry" />
        </mxCell>
        <mxCell id="Y6UNsyVRxI7d8nhPNUa1-28" value="restar" style="text;html=1;strokeColor=none;fillColor=none;align=center;verticalAlign=middle;whiteSpace=wrap;rounded=0;" vertex="1" parent="1">
          <mxGeometry x="915" y="487.5" width="60" height="30" as="geometry" />
        </mxCell>
        <mxCell id="Y6UNsyVRxI7d8nhPNUa1-29" value="dividir" style="text;html=1;strokeColor=none;fillColor=none;align=center;verticalAlign=middle;whiteSpace=wrap;rounded=0;" vertex="1" parent="1">
          <mxGeometry x="1090" y="440" width="60" height="30" as="geometry" />
        </mxCell>
        <mxCell id="Y6UNsyVRxI7d8nhPNUa1-54" style="edgeStyle=orthogonalEdgeStyle;rounded=0;orthogonalLoop=1;jettySize=auto;html=1;exitX=0.5;exitY=1;exitDx=0;exitDy=0;entryX=0.5;entryY=0;entryDx=0;entryDy=0;" edge="1" parent="1" source="Y6UNsyVRxI7d8nhPNUa1-32" target="Y6UNsyVRxI7d8nhPNUa1-53">
          <mxGeometry relative="1" as="geometry" />
        </mxCell>
        <mxCell id="Y6UNsyVRxI7d8nhPNUa1-32" value="resultado = calculo(n1,n2,opcion)" style="rounded=0;whiteSpace=wrap;html=1;" vertex="1" parent="1">
          <mxGeometry x="365" y="460" width="120" height="60" as="geometry" />
        </mxCell>
        <mxCell id="Y6UNsyVRxI7d8nhPNUa1-72" style="edgeStyle=orthogonalEdgeStyle;rounded=0;orthogonalLoop=1;jettySize=auto;html=1;exitX=0.5;exitY=1;exitDx=0;exitDy=0;" edge="1" parent="1" source="Y6UNsyVRxI7d8nhPNUa1-38">
          <mxGeometry relative="1" as="geometry">
            <mxPoint x="920" y="680" as="targetPoint" />
            <Array as="points">
              <mxPoint x="1070" y="620" />
              <mxPoint x="921" y="620" />
            </Array>
          </mxGeometry>
        </mxCell>
        <mxCell id="Y6UNsyVRxI7d8nhPNUa1-38" value="int r=n1*n2" style="rhombus;whiteSpace=wrap;html=1;" vertex="1" parent="1">
          <mxGeometry x="1030" y="520" width="80" height="65" as="geometry" />
        </mxCell>
        <mxCell id="Y6UNsyVRxI7d8nhPNUa1-40" style="edgeStyle=orthogonalEdgeStyle;rounded=0;orthogonalLoop=1;jettySize=auto;html=1;exitX=0.5;exitY=1;exitDx=0;exitDy=0;entryX=0;entryY=0.5;entryDx=0;entryDy=0;dashed=1;" edge="1" parent="1" source="Y6UNsyVRxI7d8nhPNUa1-39" target="Y6UNsyVRxI7d8nhPNUa1-1">
          <mxGeometry relative="1" as="geometry" />
        </mxCell>
        <mxCell id="Y6UNsyVRxI7d8nhPNUa1-39" value="n1, n2, opción" style="rounded=0;whiteSpace=wrap;html=1;dashed=1;" vertex="1" parent="1">
          <mxGeometry x="745" y="160" width="120" height="60" as="geometry" />
        </mxCell>
        <mxCell id="Y6UNsyVRxI7d8nhPNUa1-41" value="r int" style="rounded=0;whiteSpace=wrap;html=1;dashed=1;" vertex="1" parent="1">
          <mxGeometry x="1100" y="650" width="120" height="60" as="geometry" />
        </mxCell>
        <mxCell id="Y6UNsyVRxI7d8nhPNUa1-44" value="return error: String" style="rounded=0;whiteSpace=wrap;html=1;dashed=1;" vertex="1" parent="1">
          <mxGeometry x="1300" y="392.5" width="100" height="45" as="geometry" />
        </mxCell>
        <mxCell id="Y6UNsyVRxI7d8nhPNUa1-73" style="edgeStyle=orthogonalEdgeStyle;rounded=0;orthogonalLoop=1;jettySize=auto;html=1;exitX=0.5;exitY=1;exitDx=0;exitDy=0;" edge="1" parent="1" source="Y6UNsyVRxI7d8nhPNUa1-49">
          <mxGeometry relative="1" as="geometry">
            <mxPoint x="900" y="680" as="targetPoint" />
          </mxGeometry>
        </mxCell>
        <mxCell id="Y6UNsyVRxI7d8nhPNUa1-49" value="int r=n1-n2" style="rhombus;whiteSpace=wrap;html=1;" vertex="1" parent="1">
          <mxGeometry x="925" y="520" width="80" height="65" as="geometry" />
        </mxCell>
        <mxCell id="Y6UNsyVRxI7d8nhPNUa1-65" style="edgeStyle=orthogonalEdgeStyle;rounded=0;orthogonalLoop=1;jettySize=auto;html=1;exitX=0.5;exitY=1;exitDx=0;exitDy=0;entryX=0;entryY=0.5;entryDx=0;entryDy=0;" edge="1" parent="1" source="Y6UNsyVRxI7d8nhPNUa1-50" target="Y6UNsyVRxI7d8nhPNUa1-74">
          <mxGeometry relative="1" as="geometry">
            <Array as="points">
              <mxPoint x="875" y="680" />
            </Array>
          </mxGeometry>
        </mxCell>
        <mxCell id="Y6UNsyVRxI7d8nhPNUa1-50" value="int r=n1+n2" style="rhombus;whiteSpace=wrap;html=1;" vertex="1" parent="1">
          <mxGeometry x="835" y="510" width="80" height="65" as="geometry" />
        </mxCell>
        <mxCell id="Y6UNsyVRxI7d8nhPNUa1-71" style="edgeStyle=orthogonalEdgeStyle;rounded=0;orthogonalLoop=1;jettySize=auto;html=1;exitX=0.5;exitY=1;exitDx=0;exitDy=0;" edge="1" parent="1" source="Y6UNsyVRxI7d8nhPNUa1-51">
          <mxGeometry relative="1" as="geometry">
            <mxPoint x="940" y="680" as="targetPoint" />
          </mxGeometry>
        </mxCell>
        <mxCell id="Y6UNsyVRxI7d8nhPNUa1-51" value="int r=n1/n2" style="rhombus;whiteSpace=wrap;html=1;" vertex="1" parent="1">
          <mxGeometry x="1130" y="470" width="80" height="65" as="geometry" />
        </mxCell>
        <mxCell id="Y6UNsyVRxI7d8nhPNUa1-55" style="edgeStyle=orthogonalEdgeStyle;rounded=0;orthogonalLoop=1;jettySize=auto;html=1;exitX=1;exitY=0.75;exitDx=0;exitDy=0;" edge="1" parent="1" source="Y6UNsyVRxI7d8nhPNUa1-53">
          <mxGeometry relative="1" as="geometry">
            <mxPoint x="430" y="445" as="targetPoint" />
            <Array as="points">
              <mxPoint x="520" y="585" />
              <mxPoint x="520" y="445" />
            </Array>
          </mxGeometry>
        </mxCell>
        <mxCell id="Y6UNsyVRxI7d8nhPNUa1-53" value="resultado" style="shape=document;whiteSpace=wrap;html=1;boundedLbl=1;" vertex="1" parent="1">
          <mxGeometry x="382.5" y="555" width="85" height="40" as="geometry" />
        </mxCell>
        <mxCell id="Y6UNsyVRxI7d8nhPNUa1-58" style="edgeStyle=orthogonalEdgeStyle;rounded=0;orthogonalLoop=1;jettySize=auto;html=1;exitX=0.5;exitY=1;exitDx=0;exitDy=0;entryX=0.5;entryY=0;entryDx=0;entryDy=0;" edge="1" parent="1" source="Y6UNsyVRxI7d8nhPNUa1-56" target="Y6UNsyVRxI7d8nhPNUa1-32">
          <mxGeometry relative="1" as="geometry" />
        </mxCell>
        <mxCell id="Y6UNsyVRxI7d8nhPNUa1-60" style="edgeStyle=orthogonalEdgeStyle;rounded=0;orthogonalLoop=1;jettySize=auto;html=1;exitX=1;exitY=0.5;exitDx=0;exitDy=0;entryX=0.5;entryY=0;entryDx=0;entryDy=0;" edge="1" parent="1" source="Y6UNsyVRxI7d8nhPNUa1-56" target="Y6UNsyVRxI7d8nhPNUa1-59">
          <mxGeometry relative="1" as="geometry">
            <Array as="points">
              <mxPoint x="560" y="380" />
              <mxPoint x="560" y="600" />
              <mxPoint x="425" y="600" />
            </Array>
          </mxGeometry>
        </mxCell>
        <mxCell id="Y6UNsyVRxI7d8nhPNUa1-56" value="opcion==Salir" style="rhombus;whiteSpace=wrap;html=1;" vertex="1" parent="1">
          <mxGeometry x="377.5" y="340" width="95" height="80" as="geometry" />
        </mxCell>
        <mxCell id="Y6UNsyVRxI7d8nhPNUa1-59" value="Fin" style="ellipse;whiteSpace=wrap;html=1;" vertex="1" parent="1">
          <mxGeometry x="385" y="630" width="80" height="40" as="geometry" />
        </mxCell>
        <mxCell id="Y6UNsyVRxI7d8nhPNUa1-61" value="si" style="text;html=1;strokeColor=none;fillColor=none;align=center;verticalAlign=middle;whiteSpace=wrap;rounded=0;" vertex="1" parent="1">
          <mxGeometry x="467.5" y="345" width="60" height="30" as="geometry" />
        </mxCell>
        <mxCell id="Y6UNsyVRxI7d8nhPNUa1-62" value="no" style="text;html=1;strokeColor=none;fillColor=none;align=center;verticalAlign=middle;whiteSpace=wrap;rounded=0;" vertex="1" parent="1">
          <mxGeometry x="377.5" y="415" width="60" height="30" as="geometry" />
        </mxCell>
        <mxCell id="Y6UNsyVRxI7d8nhPNUa1-75" style="edgeStyle=orthogonalEdgeStyle;rounded=0;orthogonalLoop=1;jettySize=auto;html=1;exitX=1;exitY=0.5;exitDx=0;exitDy=0;entryX=0;entryY=0.5;entryDx=0;entryDy=0;" edge="1" parent="1" source="Y6UNsyVRxI7d8nhPNUa1-74" target="Y6UNsyVRxI7d8nhPNUa1-41">
          <mxGeometry relative="1" as="geometry" />
        </mxCell>
        <mxCell id="Y6UNsyVRxI7d8nhPNUa1-74" value="Fin" style="ellipse;whiteSpace=wrap;html=1;" vertex="1" parent="1">
          <mxGeometry x="990" y="660" width="80" height="40" as="geometry" />
        </mxCell>
        <mxCell id="Y6UNsyVRxI7d8nhPNUa1-78" style="edgeStyle=orthogonalEdgeStyle;rounded=0;orthogonalLoop=1;jettySize=auto;html=1;exitX=1;exitY=0.5;exitDx=0;exitDy=0;entryX=0;entryY=0.5;entryDx=0;entryDy=0;" edge="1" parent="1" source="Y6UNsyVRxI7d8nhPNUa1-76" target="Y6UNsyVRxI7d8nhPNUa1-44">
          <mxGeometry relative="1" as="geometry" />
        </mxCell>
        <mxCell id="Y6UNsyVRxI7d8nhPNUa1-76" value="Fin" style="ellipse;whiteSpace=wrap;html=1;" vertex="1" parent="1">
          <mxGeometry x="1190" y="395" width="80" height="40" as="geometry" />
        </mxCell>
      </root>
    </mxGraphModel>
  </diagram>
</mxfile>
